<svg xmlns="http://www.w3.org/2000/svg"  viewBox="0 0 48 48" width="48px" height="48px" baseProfile="basic"><path fill="#1e4384" d="M24.507,3.91C20.12,4.02,16.672,5,12.951,7.327c-1.442,0.902-3.621,2.791-4.758,4.056 c-1.945,2.162-3.095,4.943-3.726,7.781c-0.795,3.576-0.803,7.381,0.396,10.843c1.237,3.573,2.222,4.927,4.673,7.805 c0.627,0.736,3.406,2.787,4.192,3.352c2.644,1.902,6.166,2.679,9.333,2.814c4.788,0.204,8.33-0.921,12.296-3.611 c0.955-0.648,1.595-1.259,2.458-1.906c0.619-0.464,1.317-1.339,1.91-1.836c0.679-0.569,0.991-1.18,1.427-1.95 c1.116-1.969,1.738-4.096,2.361-6.271c0.532-1.859,0.577-3.396,0.486-5.327c-0.08-1.708-0.332-3.069-0.748-4.728 c-0.342-1.364-1.014-2.786-1.729-3.997c-0.727-1.229-1.721-3.412-2.795-4.352c-2.069-1.811-3.608-2.982-6.084-4.179 S27.685,3.831,24.507,3.91z"/><path fill="#d6e5e5" d="M32.183,27.917c1.552-3.389,1.142-7.817-1.611-10.329c-1.198-1.093-2.445-1.805-3.973-2.352 c-1.124-0.402-2.613-0.706-3.774-0.433c-0.739,0.174-1.475,0.381-2.174,0.678c-0.875,0.372-1.761,0.779-2.527,1.343 c-0.38,0.28-0.694,0.638-0.98,1.013c-1.618,2.122-2.392,4.892-2.01,7.533s1.943,5.109,4.218,6.504 c2.275,1.395,5.288,1.625,7.738,0.565c-0.394-0.766-0.9-1.524-1.27-2.295c1.216-0.732,2.318-1.302,3.534-2.034 c1.983,3.623,3.853,6.037,5.909,9.355c-1.235,1.115-2.244,1.787-3.434,2.403c-0.634-0.84-1.326-1.982-2.055-3.135 c-2.821,1.464-5.776,1.644-8.856,0.858c-0.636-0.162-1.36-0.301-1.94-0.606c-0.966-0.508-1.883-0.74-2.78-1.361 c-0.845-0.585-1.735-1.42-2.481-2.34c-0.469-0.578-1.016-1.195-1.417-1.822c-1.759-2.759-2.476-6.157-2.024-9.398 s2.061-6.301,4.443-8.543c1.027-0.966,2.204-1.791,3.517-2.304c1.315-0.514,2.903-0.899,4.32-0.958 c0.878-0.037,1.563,0.081,2.437,0.095c0.625,0.01,1.269,0.113,1.872,0.277c0.227,0.061,1.087,0.194,1.305,0.28 c3.025,1.198,5.121,2.406,7.14,4.957c0.433,0.547,0.801,1.536,1.114,2.16c0.344,0.687,0.573,1.76,0.759,2.506 c0.554,2.232,0.717,4.581,0.279,6.838c-0.438,2.257-0.606,3.435-2.264,5.028c-0.445-0.618-0.78-1.157-1.026-1.521 C33.624,30.069,33.046,29.14,32.183,27.917z"/><path fill="#d6e5e5" d="M23.624,25.055c-0.556-0.566-1.011-1.44-1.725-1.944c-0.098-0.069-0.201-0.137-0.317-0.17 c-0.221-0.064-0.465,0.005-0.655,0.135c-0.19,0.129-0.337,0.313-0.473,0.499c-0.169,0.231-0.334,0.483-0.356,0.769 c-0.02,0.255,0.077,0.505,0.195,0.732c0.184,0.358,0.421,0.686,0.657,1.013c0.363,0.502,0.726,1.005,1.09,1.507 c0.304,0.421,0.656,0.874,1.166,0.974c0.373,0.074,0.763-0.065,1.07-0.289c0.307-0.224,0.547-0.527,0.782-0.826 c0.895-1.138,1.79-2.275,2.685-3.413c0.341-0.434,0.683-0.868,1.024-1.302c0.3-0.381,0.6-0.763,0.9-1.144 c0.251-0.319,0.513-0.669,0.519-1.074c0.006-0.441-0.323-0.848-0.739-0.996c-0.416-0.147-0.893-0.059-1.27,0.17 c-0.354,0.216-0.626,0.542-0.888,0.864C26.063,22.066,24.738,23.464,23.624,25.055z"/><g><path d="M44.081,19.729c-0.448-2.222-1.276-4.156-2.407-6.111c-0.889-1.537-1.755-3.225-3.102-4.416 c-1.375-1.215-2.75-2.392-4.377-3.261c-1.94-1.037-4.028-1.852-6.198-2.246c-1.153-0.21-2.319-0.305-3.49-0.284 c-4.499,0.141-9.267,1.51-12.891,4.239c-1.519,1.144-3.077,2.426-4.239,3.943c-1.345,1.756-2.332,3.955-3.012,6.051 c-0.749,2.308-0.836,4.727-0.755,7.133c0.081,2.376,0.371,4.613,1.339,6.806c0.381,0.863,0.86,1.668,1.337,2.48 c0.482,0.82,0.911,1.668,1.464,2.445c0.975,1.371,2.256,2.384,3.561,3.419c1.263,1.003,2.516,2.031,3.974,2.741 c1.913,0.931,3.996,1.438,6.103,1.679c4.209,0.482,8.366-0.185,12.091-2.235c1.001-0.551,1.978-1.166,2.885-1.862 c0.846-0.648,1.737-1.3,2.491-2.054c0.69-0.69,1.494-1.347,2.057-2.145c0.634-0.899,1.129-1.927,1.558-2.936 c0.882-2.077,1.659-4.383,1.946-6.628C44.7,24.259,44.524,21.926,44.081,19.729z M43.423,26.421 c-0.146,1.111-0.479,2.185-0.801,3.255c-0.607,2.019-1.326,4.142-2.574,5.87c-0.268,0.371-0.606,0.648-0.936,0.959 c-0.382,0.36-0.728,0.757-1.104,1.122c-0.759,0.736-1.657,1.409-2.511,2.032c-3.224,2.353-6.946,3.767-10.952,3.839 c-3.843,0.069-7.843-0.707-10.963-3.061c-1.114-0.841-2.217-1.707-3.279-2.614c-1.382-1.18-2.212-2.65-3.112-4.194 c-1.018-1.746-1.934-3.489-2.296-5.505c-0.395-2.197-0.418-4.585-0.24-6.806c0.181-2.262,0.926-4.338,1.902-6.369 c0.448-0.933,0.938-1.86,1.56-2.69c0.546-0.729,1.225-1.365,1.895-1.979c1.44-1.318,2.972-2.489,4.709-3.39 c1.927-0.999,4.03-1.637,6.153-2.06c1.199-0.239,2.41-0.381,3.633-0.42c3.981-0.07,8.208,1.335,11.357,3.793 c1.372,1.071,2.638,2.187,3.589,3.654c1.018,1.571,2.053,3.244,2.767,4.976c0.82,1.987,1.189,4.219,1.285,6.357 C43.554,24.267,43.564,25.351,43.423,26.421z"/><path d="M36.855,17.776c-0.548-1.175-1.071-2.194-1.955-3.158c-0.811-0.885-1.739-1.662-2.75-2.31 c-1.947-1.248-4.145-2.144-6.45-2.405c-2.893-0.328-5.85-0.095-8.488,1.226c-2.438,1.222-4.43,3.4-5.729,5.771 c-2.655,4.848-2.477,11.24,0.999,15.66c1.017,1.293,2.094,2.559,3.462,3.495c0.702,0.48,1.499,0.762,2.268,1.112 c0.726,0.331,1.404,0.617,2.182,0.81c3.155,0.778,6.23,0.743,9.185-0.614c0.584,0.934,1.161,1.874,1.818,2.757 c0.164,0.22,0.427,0.324,0.684,0.179c1.256-0.704,2.435-1.554,3.536-2.481c0.164-0.138,0.188-0.43,0.078-0.606 c-1.949-3.135-4.127-6.117-5.909-9.355c-0.129-0.235-0.457-0.315-0.684-0.179c-1.167,0.697-2.367,1.337-3.534,2.034 c-0.244,0.146-0.3,0.439-0.179,0.684c0.297,0.601,0.64,1.178,0.97,1.761c-2.818,0.926-5.993,0.292-8.149-1.804 c-2.258-2.194-3.139-5.466-2.413-8.514c0.366-1.536,1.104-3.132,2.227-4.265c1.179-1.189,3.123-1.855,4.713-2.237 c1.535-0.369,3.159,0.088,4.569,0.711c1.367,0.604,2.693,1.486,3.636,2.659c1.989,2.473,2.067,6.137,0.811,8.953 c-0.104,0.136-0.133,0.319-0.001,0.508c1.034,1.474,1.968,3.017,3.013,4.484c0.186,0.261,0.539,0.343,0.785,0.101 c0.81-0.794,1.451-1.683,1.819-2.763c0.385-1.13,0.596-2.376,0.739-3.557c0.19-1.582,0.102-3.184-0.173-4.751 C37.706,20.375,37.418,18.984,36.855,17.776z M36.578,29.142c-0.25,0.955-0.699,1.738-1.323,2.454 c-0.853-1.239-1.659-2.511-2.517-3.747c1.141-2.783,1.183-6.081-0.326-8.739c-0.817-1.44-2.112-2.565-3.536-3.384 c-1.51-0.868-3.318-1.533-5.079-1.527c-1.827,0.007-3.843,0.886-5.378,1.827c-1.529,0.937-2.518,2.537-3.159,4.179 c-1.283,3.285-0.815,7.066,1.358,9.862c2.471,3.181,6.86,4.418,10.605,2.856c0.303-0.127,0.464-0.421,0.299-0.734 c-0.33-0.626-0.693-1.232-1.029-1.853c0.891-0.52,1.79-1.024,2.681-1.543c1.664,2.946,3.622,5.701,5.423,8.561 c-0.829,0.675-1.707,1.292-2.628,1.837c-0.621-0.881-1.189-1.798-1.764-2.709c-0.15-0.238-0.436-0.305-0.684-0.179 c-2.546,1.291-5.366,1.534-8.133,0.89c-2.607-0.607-5.073-1.736-6.885-3.753c-1.838-2.046-3.147-4.318-3.646-7.046 c-0.458-2.506-0.172-5.114,0.773-7.476c0.935-2.338,2.529-4.482,4.56-5.981c2.105-1.553,4.876-2.313,7.479-2.155 c0.652,0.04,1.317,0.042,1.965,0.117c0.568,0.066,1.119,0.225,1.68,0.332c1.013,0.194,1.956,0.653,2.874,1.115 c1.875,0.945,3.906,2.359,4.98,4.215c1.436,2.482,2.1,5.605,2.041,8.453C37.179,26.399,36.93,27.801,36.578,29.142z"/><path d="M25.971,21.356c-0.81,0.949-1.613,1.905-2.361,2.903c-0.513-0.669-1.001-1.462-1.783-1.757 c-1.019-0.384-2.071,0.77-2.211,1.708c-0.163,1.1,0.967,2.218,1.556,3.034c0.585,0.809,1.205,1.905,2.355,1.839 c1.215-0.07,1.948-1.357,2.616-2.206c0.84-1.068,1.681-2.137,2.521-3.205c0.395-0.503,0.791-1.005,1.186-1.508 c0.34-0.432,0.724-0.864,0.811-1.427c0.161-1.037-0.796-1.846-1.784-1.776C27.539,19.057,26.755,20.438,25.971,21.356z M29.615,20.275c0.192,0.347-0.1,0.699-0.303,0.967c-0.292,0.387-0.6,0.763-0.9,1.144c-1.196,1.52-2.39,3.04-3.587,4.559 c-0.471,0.598-1.193,1.603-1.978,0.853c-0.612-0.585-1.078-1.416-1.568-2.104c-0.241-0.338-0.694-0.845-0.673-1.285 c0.018-0.365,0.521-1.125,0.938-0.935c0.347,0.157,0.644,0.585,0.872,0.876c0.258,0.329,0.503,0.667,0.784,0.978 c0.001,0.002,0.003,0.003,0.004,0.005c0.022,0.024,0.041,0.051,0.064,0.075c0.191,0.203,0.427,0.179,0.603,0.057 c0.022-0.012,0.042-0.029,0.063-0.045c0.01-0.009,0.02-0.018,0.029-0.027c0.031-0.027,0.064-0.048,0.091-0.086 c1.093-1.545,2.383-2.936,3.586-4.394C28.015,20.461,29.098,19.341,29.615,20.275z"/></g></svg>